# xmcd
#
# Track frame offsets: 
#        150
#        13563
#        25804
#        40030
#        51771
#        64888
#        75799
#        90200
#        104228
#        115400
#        129204
#        141804
#        156717
#        168912
#        183804
#        197214
#        210454
#        223363
#        236591
#        248765
#        261749
#
# Disc length: 3707 seconds
#
# Revision: 0
# Processed by: cddbd v1.5.2PL0 Copyright (c) Steve Scherf et al.
# Submitted via: ExactAudioCopyFreeDBPlugin 1.0
#
DISCID=270e7915
DTITLE=Roger and Rogério - Open Bar - Ao Vivo
DYEAR=2013
DGENRE=Sertanejo
TTITLE0=Open Bar
TTITLE1=Pega Mas Não Se Apega
TTITLE2=Tô Na Boa
TTITLE3=Bora Zuar
TTITLE4=Palavras De Amigo
TTITLE5=Pode Ir
TTITLE6=A Turma Da Cana
TTITLE7=Dúvida
TTITLE8=Pegada Do Bebê
TTITLE9=Cadê Aquele Beijo?
TTITLE10=Saudade
TTITLE11=Feito Um Vagabundo (Feat. Sandrinho)
TTITLE12=Vou Te Mimar
TTITLE13=O Amor
TTITLE14=Amor Bandido
TTITLE15=Beijo
TTITLE16=Acomodada
TTITLE17=Cai Fora Coração
TTITLE18=Boteco Do Zé
TTITLE19=12 Anos
TTITLE20=Exemplo Das Paixões
EXTD=
EXTT0=
EXTT1=
EXTT2=
EXTT3=
EXTT4=
EXTT5=
EXTT6=
EXTT7=
EXTT8=
EXTT9=
EXTT10=
EXTT11=
EXTT12=
EXTT13=
EXTT14=
EXTT15=
EXTT16=
EXTT17=
EXTT18=
EXTT19=
EXTT20=
PLAYORDER=
